<svg width="147" height="176" viewBox="0 0 147 176" fill="none" xmlns="http://www.w3.org/2000/svg">
<path d="M48.0898 101.004C47.1328 101.004 46.5078 100.281 46.5078 99.3242V92.4688H40.0234C39.0664 92.4688 38.3438 91.8438 38.3438 90.8867C38.3438 89.9297 39.0664 89.3047 40.0234 89.3047H46.5078V82.4297C46.5078 81.4727 47.1328 80.75 48.0898 80.75C49.0469 80.75 49.6719 81.4727 49.6719 82.4297V89.3047H56.1367C57.0938 89.3047 57.8164 89.9297 57.8164 90.8867C57.8164 91.8438 57.0938 92.4688 56.1367 92.4688H49.6719V99.3242C49.6719 100.281 49.0469 101.004 48.0898 101.004ZM72.1523 102.469C68.0312 102.469 64.5547 100.418 63.2266 97.2344C62.9727 96.6289 62.8164 96.082 62.8164 95.3594C62.8164 94.3633 63.4609 93.7188 64.457 93.7188C65.3164 93.7188 65.7852 94.1094 66.0977 95.1055C66.957 97.8398 69.1641 99.3828 72.2305 99.3828C76.0195 99.3828 78.6758 96.707 78.6758 92.8789C78.6758 89.168 75.9805 86.5312 72.2109 86.5312C70.2773 86.5312 68.4805 87.2539 67.3086 88.5039C66.0586 89.832 65.7656 90.0078 64.8867 90.0078C63.793 90.0078 63.1875 89.207 63.1875 88.1914C63.1875 88.0352 63.1875 87.918 63.207 87.7422L64.2031 76.5703C64.3789 74.5977 65.2969 73.8164 67.3672 73.8164H79.1445C80.1406 73.8164 80.8047 74.4414 80.8047 75.3789C80.8047 76.3164 80.1406 76.9414 79.1445 76.9414H67.3477L66.4492 86.1992H66.5273C67.7969 84.4805 70.1211 83.5039 72.875 83.5039C78.3242 83.5039 82.1914 87.3516 82.1914 92.7812C82.1914 98.4648 78.0508 102.469 72.1523 102.469ZM95.7266 102.469C89.1445 102.469 85.3359 96.8047 85.3359 87.8984C85.3359 79.0703 89.1836 73.3477 95.7266 73.3477C102.27 73.3477 106.078 79.0312 106.078 87.8789C106.078 96.7852 102.289 102.469 95.7266 102.469ZM95.7266 99.4023C100.121 99.4023 102.543 94.9297 102.543 87.8984C102.543 80.9648 100.082 76.4336 95.7266 76.4336C91.3711 76.4336 88.8711 81.0039 88.8711 87.8789C88.8711 94.9102 91.3125 99.4023 95.7266 99.4023ZM114.281 102.352C113.52 102.352 112.953 101.883 112.953 101.18C112.953 100.828 113.051 100.535 113.266 100.242L122.426 87.1367L131.332 74.3047C131.801 73.6211 132.133 73.4648 132.68 73.4648C133.344 73.4648 133.93 73.9531 133.93 74.6172C133.93 74.9688 133.852 75.2422 133.637 75.5352L124.75 88.3086L115.57 101.531C115.141 102.156 114.828 102.352 114.281 102.352ZM114.574 87.7812C111.137 87.7812 109.066 85.0469 109.066 80.6328C109.066 76.2383 111.156 73.5234 114.574 73.5234C117.992 73.5234 120.082 76.2188 120.082 80.6328C120.082 85.0273 118.012 87.7812 114.574 87.7812ZM114.574 85.5742C116.312 85.5742 117.309 83.7969 117.309 80.6328C117.309 77.4883 116.293 75.7305 114.574 75.7305C112.855 75.7305 111.84 77.5078 111.84 80.6328C111.84 83.7969 112.836 85.5742 114.574 85.5742ZM132.309 102.293C128.871 102.293 126.801 99.5586 126.801 95.1445C126.801 90.75 128.891 88.0352 132.309 88.0352C135.727 88.0352 137.816 90.7305 137.816 95.1445C137.816 99.5391 135.746 102.293 132.309 102.293ZM132.309 100.086C134.047 100.086 135.043 98.3086 135.043 95.1445C135.043 92 134.027 90.2422 132.309 90.2422C130.59 90.2422 129.574 92.0195 129.574 95.1445C129.574 98.3086 130.57 100.086 132.309 100.086Z" fill="#935EFF"/>
<path d="M88 167C44.3695 167 9 131.63 9 88C9 44.3695 44.3695 9 88 9" stroke="#935EFF" stroke-width="17" stroke-linecap="round"/>
</svg>
