<svg width="22" height="16" viewBox="0 0 22 16" fill="none" xmlns="http://www.w3.org/2000/svg">
<path d="M11.0001 8.78093C10.7263 8.78093 10.4525 8.66971 10.1787 8.43014L1.63144 0.900995C2.10201 0.592984 2.63248 0.456091 3.36828 0.456091H18.6405C19.3763 0.456091 19.9067 0.592984 20.3688 0.900995L11.8215 8.43014C11.5562 8.66971 11.2824 8.78093 11.0001 8.78093ZM0.904194 13.8203C0.7673 13.4952 0.681742 13.1016 0.681742 12.5541V3.1084C0.681742 2.51805 0.792968 2.0817 0.887082 1.90203L7.23552 7.49755L0.904194 13.8203ZM21.1046 13.8203L14.7732 7.49755L21.1217 1.90203C21.2158 2.0817 21.327 2.51805 21.327 3.1084V12.5541C21.327 13.1016 21.2329 13.4952 21.1046 13.8203ZM3.1116 15.2064C2.47847 15.2064 1.99934 15.0524 1.67422 14.8299L8.18522 8.31892L9.43438 9.43118C9.93061 9.86752 10.4696 10.09 11.0001 10.09C11.5391 10.09 12.0781 9.86752 12.5744 9.43118L13.8235 8.31892L20.3345 14.8299C20.0094 15.0524 19.5217 15.2064 18.8971 15.2064H3.1116Z" fill="white"/>
</svg>
