<svg width="24" height="19" viewBox="0 0 24 19" fill="none" xmlns="http://www.w3.org/2000/svg">
<path d="M21.5493 0.163949C18.5151 1.42064 5.50476 6.80966 1.91002 8.27843C-0.500769 9.21922 0.910542 10.1013 0.910542 10.1013C0.910542 10.1013 2.96845 10.8069 4.73265 11.3361C6.4966 11.8653 7.43739 11.2774 7.43739 11.2774L15.7282 5.69131C18.6682 3.6921 17.9627 5.33843 17.2569 6.0442C15.7282 7.57314 13.1998 9.98369 11.0829 11.9242C10.1421 12.7474 10.6124 13.4529 11.0242 13.8058C12.5529 15.0995 16.7279 17.7455 16.9629 17.9219C18.2051 18.8012 20.6484 20.0671 21.0201 17.3926L22.4901 8.16105C22.9606 5.04472 23.4308 2.16341 23.4895 1.34025C23.6661 -0.659213 21.5493 0.163949 21.5493 0.163949Z" fill="#FAF6F6"/>
</svg>
